<svg width="15" height="15" viewBox="0 0 15 15" fill="none" xmlns="http://www.w3.org/2000/svg">
<path d="M15.0001 4.26433V14.0459C15 14.299 14.8971 14.5417 14.7143 14.7206C14.5314 14.8995 14.2835 15 14.025 15H4.12298C3.86456 14.9998 3.61678 14.8993 3.43405 14.7204C3.25133 14.5415 3.1486 14.2989 3.14844 14.0459V0.954108C3.1486 0.701112 3.25133 0.458524 3.43405 0.279628C3.61678 0.100733 3.86456 0.000159268 4.12298 0H10.6739V3.17134C10.6739 3.4617 10.7918 3.74016 11.0015 3.94548C11.2112 4.15079 11.4956 4.26613 11.7922 4.26613L15.0001 4.26433Z" fill="#222222"/>
<g style="mix-blend-mode:exclusion" opacity="0.5">
<path d="M15 4.26072V4.26433H11.7921C11.4958 4.26433 11.2117 4.14923 11.002 3.94431C10.7923 3.73939 10.6743 3.46139 10.6738 3.17134V0H10.7002L15 4.26072Z" fill="white"/>
</g>
<path d="M5.25781 7.79211H12.8902" stroke="white" stroke-opacity="0.1" stroke-width="0.5" stroke-miterlimit="10" stroke-linecap="round"/>
<path d="M5.12012 6.04675H10.06" stroke="white" stroke-opacity="0.1" stroke-miterlimit="10" stroke-linecap="round"/>
<path d="M5.25781 9.54419H12.8902" stroke="white" stroke-opacity="0.1" stroke-width="0.5" stroke-miterlimit="10" stroke-linecap="round"/>
<path d="M5.25781 11.296H12.8902" stroke="white" stroke-opacity="0.1" stroke-width="0.5" stroke-linecap="round" stroke-linejoin="round"/>
<path opacity="0.8" d="M1.00463 1.3064C1.27107 1.3064 1.52661 1.41002 1.71501 1.59448C1.90342 1.77893 2.00926 2.02911 2.00926 2.28996V3.88135H0V2.28996C0 2.02911 0.105845 1.77893 0.294249 1.59448C0.482654 1.41002 0.738186 1.3064 1.00463 1.3064Z" fill="#222222"/>
<path d="M2.00926 3.88135H0V12.0282H2.00926V3.88135Z" fill="#222222"/>
<path d="M1.08174 13.5943C1.07396 13.6077 1.0627 13.6188 1.04911 13.6266C1.03552 13.6343 1.02009 13.6384 1.00437 13.6384C0.988647 13.6384 0.973205 13.6343 0.959615 13.6266C0.946025 13.6188 0.934771 13.6077 0.926992 13.5943L0.503892 12.8771L0.00341797 12.0282H2.00531L1.50484 12.8771L1.08174 13.5943Z" fill="#222222"/>
</svg>
